<svg width="40" height="40" viewBox="0 0 40 40" fill="none" xmlns="http://www.w3.org/2000/svg">
<path d="M16.8718 17.2308C17.2821 17.8974 18.2051 18.2051 18.9744 18.4103V14.2564C18.9231 14.2564 18.6154 14.3077 18.5128 14.3077C17.3846 14.6667 16.1026 15.9487 16.8718 17.2308Z" fill="white"/>
<path d="M23.1282 25.4872C24.2051 24.1538 23.4872 22.4615 22 21.8974C21.7436 21.7949 21.2821 21.7436 21.0256 21.6923V26.5128C21.7949 26.359 22.6667 26.0513 23.1282 25.4872Z" fill="white"/>
<path d="M40 20C40 8.97436 31.0256 0 20 0C8.97436 0 0 8.97436 0 20C0 31.0256 8.97436 40 20 40C31.0256 40 40 31.0256 40 20ZM18.9744 30.718V28.718C17.1795 28.4615 15.5897 27.6923 14.6667 26.359C14.4103 26 14.2051 25.641 14.0513 25.2821C13.7949 24.7179 13.5897 23.8974 13.8974 23.3333C14.3077 22.5641 15.3333 22.6667 15.8462 23.2821C16.3077 23.8462 16.4615 24.5641 16.8718 25.1282C17.2821 25.6923 18.2051 26.1026 18.9744 26.359V21.0769C17.641 20.7179 16 20.359 15.0256 19.2821C14.0513 18.2564 13.9487 16.7692 14.2051 15.4359C14.6154 13.5385 16.2564 12.4615 18.0513 11.9487C18.2564 11.8974 18.718 11.8462 18.9231 11.7949V9.17949C18.9231 8.46154 19.2308 7.89744 19.9487 7.89744C20.6667 7.89744 20.9744 8.46154 20.9744 9.17949V11.8462C21.8462 12 22.9231 12.2564 23.6923 12.7179C24.3077 13.0769 24.8718 13.5897 25.3333 14.2564C26.0513 15.2821 26.359 16.2051 26.2564 16.9744C26.1538 17.5897 25.4872 17.9487 24.9231 17.8462C24.359 17.6923 23.9487 17.1282 23.7436 16.6667C23.4872 16 23.0769 15.3333 22.4615 14.9231C22.1026 14.6667 21.4359 14.5128 21.0256 14.359V19.0256C21.5385 19.1795 22.2564 19.3333 22.7692 19.4359C25.1282 20.1026 26.5641 22.2051 26.2564 24.6154C26.1026 25.8974 25.2821 26.9744 24.2051 27.6923C23.3333 28.2564 22.1026 28.5641 21.0769 28.718V30.718C21.0769 31.4359 20.7692 32 20.0513 32C19.2821 32 18.9744 31.4359 18.9744 30.718Z" fill="white"/>
</svg>
