<svg width="25" height="24" viewBox="0 0 25 24" fill="none" xmlns="http://www.w3.org/2000/svg">
<path d="M18.7058 7.034C19.5011 7.034 20.1458 6.38929 20.1458 5.594C20.1458 4.79871 19.5011 4.154 18.7058 4.154C17.9105 4.154 17.2658 4.79871 17.2658 5.594C17.2658 6.38929 17.9105 7.034 18.7058 7.034Z" fill="white"/>
<path d="M12.2998 5.838C11.0811 5.838 9.88972 6.19939 8.87638 6.87648C7.86305 7.55357 7.07325 8.51595 6.60686 9.6419C6.14047 10.7679 6.01844 12.0068 6.25621 13.2021C6.49397 14.3975 7.08084 15.4954 7.94261 16.3572C8.80438 17.219 9.90235 17.8058 11.0977 18.0436C12.293 18.2814 13.5319 18.1593 14.6579 17.6929C15.7839 17.2266 16.7462 16.4368 17.4233 15.4234C18.1004 14.4101 18.4618 13.2187 18.4618 12C18.4618 10.3657 17.8126 8.79841 16.657 7.64281C15.5014 6.48721 13.9341 5.838 12.2998 5.838ZM12.2998 16C11.5087 16 10.7353 15.7654 10.0775 15.3259C9.41973 14.8864 8.90704 14.2616 8.60429 13.5307C8.30154 12.7998 8.22232 11.9956 8.37666 11.2196C8.531 10.4437 8.91197 9.73098 9.47138 9.17157C10.0308 8.61216 10.7435 8.2312 11.5194 8.07686C12.2954 7.92252 13.0996 8.00173 13.8305 8.30448C14.5614 8.60723 15.1862 9.11992 15.6257 9.77772C16.0652 10.4355 16.2998 11.2089 16.2998 12C16.2998 13.0609 15.8784 14.0783 15.1282 14.8284C14.3781 15.5786 13.3607 16 12.2998 16Z" fill="white"/>
<path d="M12.2998 2.162C15.5038 2.162 15.8838 2.174 17.1488 2.232C17.9096 2.24103 18.6633 2.38073 19.3768 2.645C19.8945 2.84469 20.3646 3.15055 20.7569 3.54288C21.1493 3.93521 21.4551 4.40534 21.6548 4.923C21.9191 5.63653 22.0588 6.39016 22.0678 7.151C22.1258 8.416 22.1378 8.796 22.1378 12.001C22.1378 15.206 22.1258 15.584 22.0678 16.849C22.0588 17.6098 21.9191 18.3635 21.6548 19.077C21.4551 19.5947 21.1493 20.0648 20.7569 20.4571C20.3646 20.8495 19.8945 21.1553 19.3768 21.355C18.6633 21.6193 17.9096 21.759 17.1488 21.768C15.8838 21.826 15.5038 21.838 12.2998 21.838C9.0958 21.838 8.71581 21.826 7.4508 21.768C6.68996 21.759 5.93633 21.6193 5.22281 21.355C4.70514 21.1553 4.23502 20.8495 3.84268 20.4571C3.45035 20.0648 3.1445 19.5947 2.9448 19.077C2.68054 18.3635 2.54084 17.6098 2.5318 16.849C2.4738 15.584 2.4618 15.204 2.4618 12C2.4618 8.796 2.4738 8.416 2.5318 7.151C2.54084 6.39016 2.68054 5.63653 2.9448 4.923C3.1445 4.40534 3.45035 3.93521 3.84268 3.54288C4.23502 3.15055 4.70514 2.84469 5.22281 2.645C5.93633 2.38073 6.68996 2.24103 7.4508 2.232C8.71581 2.174 9.0958 2.162 12.2998 2.162ZM12.2998 0C9.0408 0 8.6318 0.014 7.3518 0.072C6.35658 0.0920961 5.37196 0.280769 4.43981 0.63C3.64253 0.938297 2.91846 1.40978 2.31402 2.01422C1.70958 2.61866 1.2381 3.34272 0.929805 4.14C0.580463 5.07247 0.391788 6.05744 0.371805 7.053C0.313805 8.333 0.299805 8.74 0.299805 12C0.299805 15.26 0.313805 15.668 0.371805 16.948C0.391901 17.9432 0.580574 18.9278 0.929805 19.86C1.2381 20.6573 1.70958 21.3813 2.31402 21.9858C2.91846 22.5902 3.64253 23.0617 4.43981 23.37C5.37228 23.7193 6.35724 23.908 7.35281 23.928C8.6328 23.986 9.0408 24 12.2998 24C15.5588 24 15.9678 23.986 17.2478 23.928C18.2434 23.908 19.2283 23.7193 20.1608 23.37C20.9581 23.0617 21.6821 22.5902 22.2866 21.9858C22.891 21.3813 23.3625 20.6573 23.6708 19.86C24.0198 18.9275 24.2081 17.9425 24.2278 16.947C24.2858 15.667 24.2998 15.26 24.2998 12C24.2998 8.74 24.2858 8.332 24.2278 7.052C24.2077 6.05677 24.019 5.07216 23.6698 4.14C23.3615 3.34272 22.89 2.61866 22.2856 2.01422C21.6811 1.40978 20.9571 0.938297 20.1598 0.63C19.2273 0.281 18.2423 0.0926631 17.2468 0.073C15.9668 0.013 15.5598 0 12.2998 0Z" fill="white"/>
</svg>
