<svg width="42" height="42" viewBox="0 0 42 42" fill="none" xmlns="http://www.w3.org/2000/svg">
<path d="M29.4078 14.4821C30.4516 14.4821 31.2978 13.636 31.2978 12.5921C31.2978 11.5483 30.4516 10.7021 29.4078 10.7021C28.364 10.7021 27.5178 11.5483 27.5178 12.5921C27.5178 13.636 28.364 14.4821 29.4078 14.4821Z" fill="white"/>
<path d="M21 12.9124C19.4004 12.9124 17.8367 13.3867 16.5067 14.2754C15.1767 15.164 14.1401 16.4272 13.528 17.905C12.9159 19.3828 12.7557 21.009 13.0678 22.5778C13.3798 24.1466 14.1501 25.5877 15.2812 26.7188C16.4122 27.8499 17.8533 28.6201 19.4222 28.9322C20.991 29.2443 22.6172 29.0841 24.095 28.472C25.5728 27.8598 26.8359 26.8232 27.7246 25.4932C28.6133 24.1632 29.0876 22.5996 29.0876 21C29.0876 18.855 28.2355 16.7979 26.7188 15.2812C25.2021 13.7644 23.145 12.9124 21 12.9124ZM21 26.25C19.9616 26.25 18.9466 25.9421 18.0832 25.3652C17.2199 24.7883 16.547 23.9684 16.1496 23.0091C15.7523 22.0498 15.6483 20.9942 15.8509 19.9758C16.0534 18.9574 16.5534 18.0219 17.2877 17.2877C18.0219 16.5534 18.9574 16.0534 19.9758 15.8509C20.9942 15.6483 22.0498 15.7522 23.0091 16.1496C23.9684 16.547 24.7883 17.2199 25.3652 18.0832C25.9421 18.9466 26.25 19.9616 26.25 21C26.25 22.3924 25.6969 23.7277 24.7123 24.7123C23.7277 25.6969 22.3924 26.25 21 26.25Z" fill="white"/>
<path d="M21 7.33763C25.2052 7.33763 25.704 7.35337 27.3643 7.4295C28.3629 7.44136 29.3521 7.62471 30.2886 7.97156C30.968 8.23366 31.585 8.63509 32.1 9.15003C32.6149 9.66497 33.0163 10.282 33.2784 10.9614C33.6253 11.8979 33.8086 12.8871 33.8205 13.8857C33.8966 15.546 33.9124 16.0447 33.9124 20.2513C33.9124 24.4579 33.8966 24.954 33.8205 26.6143C33.8086 27.6129 33.6253 28.6021 33.2784 29.5386C33.0163 30.218 32.6149 30.835 32.1 31.35C31.585 31.8649 30.968 32.2663 30.2886 32.5284C29.3521 32.8753 28.3629 33.0586 27.3643 33.0705C25.704 33.1466 25.2052 33.1624 21 33.1624C16.7948 33.1624 16.296 33.1466 14.6357 33.0705C13.6371 33.0586 12.6479 32.8753 11.7114 32.5284C11.032 32.2663 10.415 31.8649 9.90003 31.35C9.38509 30.835 8.98366 30.218 8.72156 29.5386C8.37471 28.6021 8.19136 27.6129 8.1795 26.6143C8.10337 24.954 8.08763 24.4552 8.08763 20.25C8.08763 16.0448 8.10337 15.546 8.1795 13.8857C8.19136 12.8871 8.37471 11.8979 8.72156 10.9614C8.98366 10.282 9.38509 9.66497 9.90003 9.15003C10.415 8.63509 11.032 8.23366 11.7114 7.97156C12.6479 7.62471 13.6371 7.44136 14.6357 7.4295C16.296 7.35337 16.7948 7.33763 21 7.33763ZM21 4.5C16.7226 4.5 16.1858 4.51838 14.5057 4.5945C13.1995 4.62088 11.9072 4.86851 10.6838 5.32688C9.63733 5.73152 8.68699 6.35033 7.89366 7.14366C7.10033 7.93699 6.48152 8.88733 6.07688 9.93375C5.61836 11.1576 5.37073 12.4504 5.3445 13.7571C5.26838 15.4371 5.25 15.9712 5.25 20.25C5.25 24.5287 5.26838 25.0642 5.3445 26.7442C5.37088 28.0505 5.61851 29.3428 6.07688 30.5662C6.48152 31.6127 7.10033 32.563 7.89366 33.3563C8.68699 34.1497 9.63733 34.7685 10.6838 35.1731C11.9076 35.6316 13.2004 35.8793 14.5071 35.9055C16.1871 35.9816 16.7226 36 21 36C25.2774 36 25.8142 35.9816 27.4942 35.9055C28.8009 35.8793 30.0937 35.6316 31.3176 35.1731C32.364 34.7685 33.3143 34.1497 34.1077 33.3563C34.901 32.563 35.5198 31.6127 35.9244 30.5662C36.3825 29.3423 36.6297 28.0495 36.6555 26.7429C36.7316 25.0629 36.75 24.5287 36.75 20.25C36.75 15.9712 36.7316 15.4358 36.6555 13.7557C36.6291 12.4495 36.3815 11.1572 35.9231 9.93375C35.5185 8.88733 34.8997 7.93699 34.1063 7.14366C33.313 6.35033 32.3627 5.73152 31.3162 5.32688C30.0923 4.86881 28.7995 4.62162 27.4929 4.59581C25.8129 4.51706 25.2787 4.5 21 4.5Z" fill="white"/>
</svg>
