<svg width="35" height="48" viewBox="0 0 35 48" fill="none" xmlns="http://www.w3.org/2000/svg">
<path d="M14.6702 37.6235C15.1041 37.9829 15.5954 38.2332 16.1058 38.4064L13.0623 48L9.28494 42.3273L2.93622 44.7529L6.03082 34.9989C6.77098 35.4353 7.62598 35.6727 8.52565 35.6214L10.9886 35.4802C11.6266 35.4481 12.2583 35.6471 12.756 36.0578L14.6638 37.6235H14.6702ZM24.0178 35.4802C23.3734 35.4481 22.7481 35.6471 22.2504 36.0578L20.3426 37.6235C19.9087 37.9829 19.4174 38.2332 18.9069 38.4064L21.9505 48L25.7278 42.3273L32.0765 44.7529L28.9819 35.0053C28.2418 35.4417 27.3868 35.6791 26.4871 35.6214L24.0242 35.4802H24.0178ZM34.8266 22.2866C35.2669 23.4289 34.8457 24.7315 33.8248 25.3925L31.7511 26.7337C30.8068 27.3433 30.1304 28.2802 29.8433 29.3711L29.2116 31.7647C28.899 32.9455 27.7888 33.7476 26.5828 33.6834L24.1199 33.5422C23.0033 33.4845 21.9058 33.8374 21.0317 34.5497L19.1239 36.1155C18.1795 36.8856 16.8141 36.8856 15.8761 36.1155L13.9683 34.5497C13.1644 33.8888 12.169 33.5358 11.1353 33.5358C11.0524 33.5358 10.9694 33.5358 10.8801 33.5422L8.41718 33.6834C7.19848 33.7476 6.10101 32.9455 5.78836 31.7647L5.15668 29.3711C4.86955 28.2802 4.1932 27.3433 3.24887 26.7337L1.17517 25.3925C0.154268 24.7315 -0.266854 23.4225 0.17341 22.2866L1.0667 19.9765C1.47506 18.9241 1.47506 17.769 1.0667 16.7166L0.17341 14.4064C-0.266854 13.2642 0.154268 11.9615 1.17517 11.3005L3.24887 9.95936C4.1932 9.34973 4.86955 8.41283 5.15668 7.32192L5.78836 4.92834C6.10101 3.74759 7.1921 2.93904 8.41718 3.00962L10.8801 3.1508C12.0031 3.21497 13.0942 2.85562 13.9683 2.14332L15.8761 0.57754C16.8205 -0.192513 18.1859 -0.192513 19.1239 0.57754L21.0317 2.14332C21.8994 2.85562 22.9969 3.21497 24.1199 3.1508L26.5828 3.00962C27.8015 2.94545 28.899 3.74759 29.2116 4.92834L29.8433 7.32192C30.1304 8.41283 30.8068 9.34973 31.7511 9.95936L33.8248 11.3005C34.8457 11.9615 35.2669 13.2706 34.8266 14.4064L33.9333 16.7166C33.5249 17.769 33.5249 18.9241 33.9333 19.9765L34.8266 22.2866ZM28.0567 18.3465C28.0567 12.4877 23.3351 7.73262 17.5032 7.73262C11.6713 7.73262 6.94963 12.4813 6.94963 18.3465C6.94963 24.2118 11.6713 28.9604 17.5032 28.9604C23.3351 28.9604 28.0567 24.2118 28.0567 18.3465Z" fill="white"/>
</svg>
