<svg width="49" height="30" viewBox="0 0 49 30" fill="none" xmlns="http://www.w3.org/2000/svg">
<path d="M22.048 10.7538C23.077 10.7538 23.9911 11.2542 24.5606 12.0214C25.1659 11.247 26.1111 10.7538 27.1711 10.7538H41.0881L41.4063 9.76013C41.6648 8.96187 42.1242 8.2661 42.7368 7.72996V1.86101C42.7368 0.836381 41.8969 0 40.868 0H8.15065C7.12172 0 6.28182 0.836381 6.28182 1.86101V7.72996C6.90156 8.2661 7.36099 8.96187 7.61226 9.76013L7.93051 10.7538H22.048Z" fill="white"/>
<path d="M12.1874 30C12.5296 30 12.8071 29.726 12.8071 29.3829V27.2121H9.25374V29.3829C9.25374 29.7236 9.52892 30 9.87348 30H12.1874Z" fill="white"/>
<path d="M39.1333 30C39.4754 30 39.753 29.726 39.753 29.3828V27.2049H36.1996V29.3828C36.1996 29.7236 36.4748 30 36.8193 30H39.1333Z" fill="white"/>
<path d="M8.34685 12.0548L10.0386 17.3376H23.8575V13.861C23.8575 12.8674 23.044 12.062 22.0509 12.062L8.34716 12.0596L8.34685 12.0548Z" fill="white"/>
<path d="M25.1542 14.049V17.3302H38.9732L40.6649 12.0474H27.1645C26.0566 12.0474 25.1542 12.9434 25.1542 14.049Z" fill="white"/>
<path d="M3.28546 21.9053C3.96505 24.0332 5.78358 25.5415 7.95391 25.8513C8.16927 25.8823 8.38223 25.899 8.60238 25.9061H40.3988C40.6189 25.899 40.8343 25.8823 41.0473 25.8513C43.2104 25.5391 45.0218 24.0332 45.7038 21.9172L48.8456 12.126C49.1088 11.3015 49.0346 10.4175 48.6302 9.65022C48.233 8.88057 47.551 8.30869 46.7183 8.04657C46.3929 7.94172 46.0579 7.89407 45.7253 7.89407C45.2108 7.89407 44.7011 8.01559 44.2298 8.26102C44.1556 8.29676 44.0838 8.33966 44.0096 8.38255C43.7703 8.5279 43.5502 8.70661 43.3611 8.90678C43.086 9.19272 42.8658 9.53582 42.7127 9.91231C42.6768 9.99095 42.6505 10.0767 42.6218 10.1554L42.3633 10.9608L41.2435 14.4754L40.0542 18.1831C39.9681 18.4524 39.7168 18.6335 39.4345 18.6335L9.55949 18.6359C9.27714 18.6359 9.02589 18.4524 8.93976 18.1855L7.75052 14.4778L6.37462 10.1649C6.3507 10.0791 6.31959 10.0005 6.28369 9.92183C6.13055 9.54296 5.91041 9.20696 5.63523 8.9163C5.4462 8.71614 5.22366 8.53743 4.98676 8.39207C4.91976 8.34918 4.8408 8.30629 4.76662 8.27054C4.29523 8.02749 3.78553 7.90358 3.27109 7.90358C2.94088 7.90358 2.60351 7.95124 2.27806 8.05609C1.44533 8.3182 0.770585 8.88533 0.366167 9.65974C-0.0310471 10.4294 -0.112402 11.3063 0.157992 12.1355L3.28307 21.9194L3.28546 21.9053Z" fill="white"/>
</svg>
