<svg width="18" height="24" viewBox="0 0 18 24" fill="none" xmlns="http://www.w3.org/2000/svg">
<path d="M7.47481 15.2795C6.88448 18.4598 6.16581 21.5095 4.03314 23.102C3.37631 18.2953 5.00031 14.6845 5.75398 10.852C4.46831 8.62365 5.90914 4.13781 8.62048 5.24265C11.9571 6.60298 5.73065 13.5283 9.91081 14.394C14.2753 15.297 16.058 6.59715 13.3513 3.76682C9.44064 -0.317684 1.96814 3.67465 2.88748 9.52315C3.11148 10.9535 4.54531 11.3875 3.46031 13.3615C0.95781 12.7886 0.211144 10.7563 0.307977 8.04615C0.461977 3.61281 4.17781 0.507149 7.90414 0.0778153C12.6175 -0.465851 17.0403 1.85931 17.6505 6.42448C18.3388 11.5765 15.5236 17.1578 10.4848 16.7553C9.11864 16.6468 8.54464 15.9503 7.47481 15.2795Z" fill="white"/>
</svg>
