<svg width="38" height="38" viewBox="0 0 38 38" fill="none" xmlns="http://www.w3.org/2000/svg">
<g clip-path="url(#clip0_142_85)">
<path d="M34.9102 7.03952C33.8806 6.29852 31.0116 5.31409 18.99 5.31409C6.10736 5.31409 4.19608 6.44459 3.5827 6.81449C0.318259 8.77561 0.00832129 17.458 -0.0201416 19.2185C0.0190459 21.5437 0.39489 29.2796 3.58036 31.1933C4.19255 31.562 6.09311 32.686 18.99 32.686C31.0193 32.686 33.8848 31.7063 34.9102 30.9682C37.6925 28.9667 38.0125 22.0739 38.0202 19.1883C38.0131 16.8679 37.7697 9.09928 34.9102 7.03956L34.9102 7.03952ZM33.5232 29.0409C33.1093 29.339 30.7331 30.3109 18.9899 30.3109C7.63678 30.3109 5.25466 29.4298 4.8046 29.1585C3.65866 28.4709 2.44919 24.8211 2.35423 19.212C2.44804 13.6153 3.67413 9.52967 4.80705 8.85042C5.2583 8.57789 7.64929 7.68964 18.9899 7.68964C30.7236 7.68964 33.1063 8.66818 33.5231 8.96743C34.5403 9.70012 35.6292 13.5571 35.6452 19.196C35.6292 24.9233 34.5331 28.3142 33.5232 29.0409ZM26.7342 18.066L16.0491 11.5092C15.869 11.4005 15.6633 11.3417 15.453 11.3387C15.2426 11.3357 15.0353 11.3886 14.8521 11.4919C14.6688 11.5953 14.5162 11.7456 14.41 11.9273C14.3038 12.1091 14.2478 12.3158 14.2477 12.5263V25.6422C14.2478 25.9571 14.373 26.259 14.5957 26.4817C14.8183 26.7044 15.1203 26.8295 15.4352 26.8297C15.6513 26.8297 15.8633 26.7708 16.0485 26.6593L26.7336 20.1001C27.0899 19.8846 27.3078 19.4993 27.3078 19.0831C27.3078 18.6668 27.0905 18.2803 26.7342 18.066H26.7342ZM16.6233 23.5385V14.6287L23.8225 19.083L16.6233 23.5385Z" fill="white"/>
</g>
<defs>
<clipPath id="clip0_142_85">
<rect width="38" height="38" fill="white"/>
</clipPath>
</defs>
</svg>
